<svg width="591" height="498" viewBox="0 0 591 498" fill="none" xmlns="http://www.w3.org/2000/svg">
<circle cx="223.1" cy="223.202" r="222.231" fill="#2CA955"/>
<mask id="mask0_1494_51856" style="mask-type:alpha" maskUnits="userSpaceOnUse" x="0" y="0" width="591" height="498">
<path fill-rule="evenodd" clip-rule="evenodd" d="M234.796 445.131C230.923 445.331 227.023 445.433 223.099 445.433C100.365 445.433 0.868927 345.937 0.868927 223.202C0.868927 100.468 100.365 0.971924 223.099 0.971924C227.023 0.971924 230.923 1.07359 234.796 1.27445V0.971924H590.185V497.617H234.796V445.131Z" fill="#C4C4C4"/>
</mask>
<g mask="url(#mask0_1494_51856)">
<mask id="mask1_1494_51856" style="mask-type:alpha" maskUnits="userSpaceOnUse" x="0" y="0" width="446" height="446">
<circle cx="223.099" cy="223.202" r="222.231" fill="#2CA955"/>
</mask>
<g mask="url(#mask1_1494_51856)">
<g opacity="0.2">
<circle cx="185.43" cy="170.238" r="238.515" stroke="white" stroke-width="3.65812"/>
<path d="M386.299 170.238C386.299 281.173 296.267 371.106 185.202 371.106C74.1368 371.106 -15.8956 281.173 -15.8956 170.238C-15.8956 59.3039 74.1368 -30.6297 185.202 -30.6297C296.267 -30.6297 386.299 59.3039 386.299 170.238Z" stroke="white" stroke-width="3.65812"/>
<path d="M353.7 170.239C353.7 263.428 278.257 338.969 185.199 338.969C92.1409 338.969 16.6982 263.428 16.6982 170.239C16.6982 77.0492 92.1409 1.50838 185.199 1.50838C278.257 1.50838 353.7 77.0492 353.7 170.239Z" stroke="white" stroke-width="3.65812"/>
<circle cx="185.43" cy="170.697" r="143.02" stroke="white" stroke-width="3.65812"/>
</g>
</g>
</g>
</svg>
